<?xml version="1.0" standalone="no"?>
<!DOCTYPE svg PUBLIC "-//W3C//DTD SVG 20010904//EN"
 "http://www.w3.org/TR/2001/REC-SVG-20010904/DTD/svg10.dtd">
<svg version="1.0" xmlns="http://www.w3.org/2000/svg"
 width="157.000000pt" height="151.000000pt" viewBox="0 0 157.000000 151.000000"
 preserveAspectRatio="xMidYMid meet">

<g transform="translate(0.000000,151.000000) scale(0.100000,-0.100000)"
fill="#000000" stroke="none">
<path d="M678 1420 c-244 -41 -450 -222 -534 -470 -15 -44 -19 -84 -19 -195 1
-132 2 -144 32 -222 152 -398 609 -561 971 -346 86 51 198 170 245 260 210
400 -29 889 -473 969 -83 15 -150 16 -222 4z m219 -96 c269 -55 463 -290 463
-561 0 -94 -15 -162 -55 -248 -44 -96 -111 -174 -200 -234 -230 -153 -528
-126 -723 67 -114 114 -172 251 -172 410 0 190 86 361 235 468 141 100 289
132 452 98z"/>
<path d="M485 936 c-64 -29 -115 -110 -115 -183 0 -57 36 -121 87 -153 34 -22
61 -30 124 -35 44 -4 83 -4 86 -1 4 3 -9 22 -27 41 -23 24 -43 35 -63 35 -71
0 -127 55 -127 124 0 27 8 46 34 74 l34 37 129 4 128 3 22 34 22 34 -152 0
c-105 -1 -161 -5 -182 -14z"/>
<path d="M863 930 c-62 -37 -62 -138 0 -184 25 -19 45 -21 178 -25 128 -3 149
-1 149 12 0 8 -14 27 -31 41 -28 24 -38 26 -128 26 -104 0 -136 11 -129 46 3
17 15 19 125 24 l123 5 19 38 19 37 -147 0 c-127 0 -150 -3 -178 -20z"/>
<path d="M549 782 c17 -33 49 -54 90 -59 40 -5 41 -7 41 -42 0 -30 8 -45 43
-79 l43 -42 109 1 c186 1 260 11 289 38 52 49 44 51 -189 51 l-215 0 0 75 0
75 -110 0 c-103 0 -110 -1 -101 -18z"/>
</g>
</svg>
