<?xml version="1.0" standalone="no"?>
<!DOCTYPE svg PUBLIC "-//W3C//DTD SVG 20010904//EN"
 "http://www.w3.org/TR/2001/REC-SVG-20010904/DTD/svg10.dtd">
<svg version="1.0" xmlns="http://www.w3.org/2000/svg"
 width="1057.000000pt" height="531.000000pt" viewBox="0 0 1057.000000 531.000000"
 preserveAspectRatio="xMidYMid meet">

<g transform="translate(0.000000,531.000000) scale(0.100000,-0.100000)"
fill="#000000" stroke="none">
<path d="M0 2655 l0 -2655 5285 0 5285 0 0 2655 0 2655 -5285 0 -5285 0 0
-2655z m5285 1948 c-87 -22 -303 -101 -386 -142 -200 -101 -360 -238 -470
-404 -74 -113 -114 -210 -153 -369 l-30 -127 -611 -4 c-662 -3 -681 -5 -869
-64 -355 -111 -623 -369 -708 -682 -31 -111 -30 -352 1 -466 91 -336 359 -576
758 -679 167 -44 220 -46 1093 -46 l835 0 3 290 2 290 -1046 0 -1046 0 19 24
c41 53 718 862 728 868 5 4 199 8 430 8 l421 0 27 -97 c86 -308 267 -524 566
-677 261 -133 558 -193 979 -198 l162 -2 0 -773 0 -774 -1512 4 c-1064 3
-1540 7 -1603 16 -152 19 -275 41 -395 71 -931 232 -1579 900 -1681 1733 -17
146 -7 454 21 592 121 608 560 1118 1185 1380 298 125 627 200 980 224 127 9
2334 12 2300 4z m4245 -23 c-12 -16 -49 -66 -83 -109 -73 -93 -130 -168 -456
-593 l-243 -318 -1445 0 c-1010 0 -1466 -3 -1516 -11 -193 -30 -268 -105 -267
-268 2 -185 102 -261 368 -278 l102 -6 0 -400 0 -400 -222 6 c-574 15 -936
144 -1198 424 -120 127 -193 277 -237 483 -27 128 -24 390 6 529 57 268 195
489 401 641 95 71 278 162 408 204 189 61 471 109 697 119 39 2 888 4 1888 5
l1818 2 -21 -30z m-970 -1603 c383 -58 624 -158 810 -333 133 -126 219 -278
262 -467 29 -124 31 -425 4 -562 -72 -371 -220 -595 -514 -773 -194 -118 -439
-193 -782 -238 -108 -15 -269 -18 -1196 -21 l-1071 -4 -6 308 c-9 388 -9 661
-1 702 l7 31 1033 0 c1092 0 1117 1 1207 46 84 42 128 114 135 220 10 149 -49
240 -185 286 l-68 23 -1065 5 -1065 5 -2 385 c-1 212 0 391 3 398 3 11 225 12
1196 9 1036 -3 1207 -6 1298 -20z"/>
</g>
</svg>
