<?xml version="1.0" standalone="no"?>
<!DOCTYPE svg PUBLIC "-//W3C//DTD SVG 20010904//EN"
 "http://www.w3.org/TR/2001/REC-SVG-20010904/DTD/svg10.dtd">
<svg version="1.0" xmlns="http://www.w3.org/2000/svg"
 width="452.000000pt" height="165.000000pt" viewBox="0 0 452.000000 165.000000"
 preserveAspectRatio="xMidYMid meet">

<g transform="translate(0.000000,165.000000) scale(0.100000,-0.100000)"
fill="#000000" stroke="none">
<path d="M1063 1469 c-411 -48 -673 -299 -673 -644 0 -296 208 -545 531 -635
124 -34 260 -41 724 -38 l440 3 3 413 2 412 -422 -1 -423 0 -117 -142 -117
-142 337 -5 337 -5 0 -95 0 -95 -270 -3 c-173 -2 -291 1 -330 8 -182 35 -289
148 -289 304 -1 87 14 132 64 195 48 61 153 116 250 131 41 6 533 10 1355 10
l1290 0 125 161 c69 89 127 166 128 170 5 11 -2850 9 -2945 -2z"/>
<path d="M2320 945 c0 -3 9 -24 21 -46 28 -55 98 -124 152 -149 110 -52 122
-53 629 -59 465 -6 477 -7 505 -27 25 -19 28 -28 28 -75 0 -49 -2 -55 -34 -76
l-34 -23 -534 0 -533 0 -43 -56 c-23 -31 -79 -102 -124 -159 -46 -57 -83 -106
-83 -109 0 -3 300 -6 668 -6 731 1 769 3 887 58 78 37 149 101 180 163 51 99
56 261 13 361 -45 105 -179 181 -338 193 -99 7 -1360 17 -1360 10z"/>
</g>
</svg>
